<?xml version="1.0" encoding="utf-8"?>
<!-- Generator: Adobe Illustrator 19.0.0, SVG Export Plug-In . SVG Version: 6.00 Build 0)  -->
<svg version="1.1" id="Layer_1" xmlns="http://www.w3.org/2000/svg" xmlns:xlink="http://www.w3.org/1999/xlink" x="0px" y="0px"
	 viewBox="-148 32 805 537" style="enable-background:new -148 32 805 537;" xml:space="preserve">
<style type="text/css">
	.st0{fill:none;stroke:#6FBE47;stroke-width:7;stroke-miterlimit:10;}
	.st1{fill:#6FBE47;}
	.st2{fill:none;}
	.st3{enable-background:new    ;}
	.st4{fill:#FFFFFF;}
	.st5{fill:none;stroke:#6FBE47;stroke-width:5;stroke-miterlimit:10;}
	.st6{fill:#689F63;}
	.st7{fill:#404137;}
	.st8{clip-path:url(#SVGID_2_);fill:url(#SVGID_3_);}
	.st9{clip-path:url(#SVGID_5_);fill:url(#SVGID_6_);}
	.st10{clip-path:url(#SVGID_8_);fill:url(#SVGID_9_);}
</style>
<g id="node">
	<polygon id="XMLID_52_" class="st0" points="357.4,225.5 257.9,283.1 158.2,225.6 158.2,110.6 257.7,53.1 357.4,110.5 	"/>
</g>
<g id="Asnchronous">
	<polygon id="XMLID_53_" class="st1" points="230.9,340.5 148.7,388.1 66.4,340.6 66.3,245.6 148.6,198.1 230.9,245.5 	"/>
	<rect id="XMLID_71_" x="77.4" y="267.4" class="st2" width="142.9" height="71"/>
	<g class="st3">
		<path class="st4" d="M92.3,278.5h-5.5l-0.9,2.2h-3.4l5.4-12.6h3.4l5.3,12.6h-3.5L92.3,278.5z M91.4,276l-1.7-4.5l-1.8,4.5H91.4z"
			/>
		<path class="st4" d="M101.2,273.1c-0.5,0-0.9,0.2-0.9,0.6c0,1.3,5.1,0.7,5.1,4.1c0,2-1.7,3.1-4.1,3.1c-1.6,0-3.2-0.5-4.4-1.4
			l1-2.1c1.1,0.8,2.4,1.2,3.5,1.2c0.6,0,1-0.2,1-0.6c0-1.3-5-0.7-5-4c0-2,1.7-3.2,4-3.2c1.4,0,2.8,0.4,4.1,1.1l-1.1,2.1
			C103.1,273.5,102,273.1,101.2,273.1z"/>
		<path class="st4" d="M108.4,284.4c-1.1,0-2-0.3-2.9-1l1.3-2.2c0.5,0.4,0.8,0.5,1.3,0.5c0.5,0,0.9-0.3,1.2-0.7l0.2-0.5l-4-9.5h3.3
			l2.3,6.3l2.1-6.3h3.2l-4.2,10.7C111.5,283.5,110.3,284.4,108.4,284.4z"/>
		<path class="st4" d="M127.5,274.6v6.1h-3.2v-5.2c0-1.1-0.6-1.8-1.7-1.8c-1.1,0-1.8,0.8-1.9,1.9v5.1h-3.2V271h3.2v1.6
			c0.7-1.1,1.8-1.7,3.2-1.7C126.1,270.9,127.5,272.3,127.5,274.6z"/>
		<path class="st4" d="M134.1,273.6c-1.2,0-1.9,1-1.9,2.4c0,1.4,0.8,2.4,1.9,2.4c0.8,0,1.5-0.3,1.9-1.1l2.4,1.4
			c-0.8,1.5-2.4,2.3-4.4,2.3c-3,0-5-2-5-4.9c0-3,2-5,5-5c2,0,3.5,0.8,4.4,2.3l-2.3,1.4C135.6,273.9,134.9,273.6,134.1,273.6z"/>
		<path class="st4" d="M149.9,274.6v6.1h-3.2v-5.2c0-1.1-0.6-1.8-1.7-1.8c-1.2,0-1.9,0.9-1.9,2.2v4.8h-3.2v-13.4h3.2v5.2
			c0.7-1.1,1.8-1.7,3.2-1.7C148.5,270.9,149.9,272.3,149.9,274.6z"/>
		<path class="st4" d="M158.4,270.9v2.9c-1.8-0.2-3,0.6-3.1,2v5H152V271h3.2v1.6C155.9,271.5,157,270.9,158.4,270.9z"/>
		<path class="st4" d="M169.6,275.9c0,3-2.1,5-5.3,5s-5.3-2-5.3-5c0-3,2.1-5,5.3-5S169.6,272.9,169.6,275.9z M162.2,275.9
			c0,1.5,0.8,2.4,2.1,2.4c1.3,0,2.1-1,2.1-2.4c0-1.4-0.8-2.4-2.1-2.4C163.1,273.5,162.2,274.5,162.2,275.9z"/>
		<path class="st4" d="M181.2,274.6v6.1H178v-5.2c0-1.1-0.6-1.8-1.7-1.8c-1.1,0-1.8,0.8-1.9,1.9v5.1h-3.2V271h3.2v1.6
			c0.7-1.1,1.8-1.7,3.2-1.7C179.8,270.9,181.2,272.3,181.2,274.6z"/>
		<path class="st4" d="M193.2,275.9c0,3-2.1,5-5.3,5s-5.3-2-5.3-5c0-3,2.1-5,5.3-5S193.2,272.9,193.2,275.9z M185.8,275.9
			c0,1.5,0.8,2.4,2.1,2.4c1.3,0,2.1-1,2.1-2.4c0-1.4-0.8-2.4-2.1-2.4C186.7,273.5,185.8,274.5,185.8,275.9z"/>
		<path class="st4" d="M204.4,271v9.7h-3.2v-1.6c-0.7,1.1-1.7,1.7-3.1,1.7c-2.1,0-3.5-1.5-3.5-3.7V271h3.2v5.2
			c0,1.1,0.6,1.8,1.6,1.8c1.1,0,1.8-0.9,1.8-2.2V271H204.4z"/>
		<path class="st4" d="M210.2,273.1c-0.5,0-0.9,0.2-0.9,0.6c0,1.3,5.1,0.7,5.1,4.1c0,2-1.7,3.1-4.1,3.1c-1.6,0-3.2-0.5-4.4-1.4
			l1-2.1c1.1,0.8,2.4,1.2,3.5,1.2c0.6,0,1-0.2,1-0.6c0-1.3-5-0.7-5-4c0-2,1.7-3.2,4-3.2c1.4,0,2.8,0.4,4.1,1.1l-1.1,2.1
			C212.1,273.5,211,273.1,210.2,273.1z"/>
	</g>
	<g class="st3">
		<path class="st4" d="M111.7,296v6.3h-3.2v-1.1c-0.6,0.8-1.6,1.2-2.9,1.2c-2.1,0-3.3-1.3-3.3-3c0-1.9,1.3-2.9,3.7-3h2.5v-0.1
			c0-0.9-0.6-1.5-1.9-1.5c-0.8,0-1.9,0.3-2.9,0.8l-0.9-2.2c1.5-0.7,2.9-1.1,4.5-1.1C110.1,292.5,111.7,293.8,111.7,296z
			 M108.5,299.1v-0.8h-1.9c-0.9,0-1.4,0.3-1.4,1c0,0.7,0.5,1.1,1.3,1.1C107.5,300.3,108.3,299.8,108.5,299.1z"/>
		<path class="st4" d="M123.8,296.2v6.1h-3.2v-5.2c0-1.1-0.6-1.8-1.7-1.8c-1.1,0-1.8,0.8-1.9,1.9v5.1h-3.2v-9.7h3.2v1.6
			c0.7-1.1,1.8-1.7,3.2-1.7C122.4,292.5,123.8,293.9,123.8,296.2z"/>
		<path class="st4" d="M135.8,289v13.4h-3.2v-1.3c-0.7,0.9-1.7,1.4-2.9,1.4c-2.7,0-4.5-2-4.5-5c0-3,1.8-4.9,4.5-4.9
			c1.3,0,2.3,0.5,3,1.4V289H135.8z M132.6,297.5c0-1.5-0.8-2.4-2.1-2.4c-1.3,0-2.1,1-2.1,2.4s0.8,2.4,2.1,2.4
			C131.8,300,132.6,299,132.6,297.5z"/>
		<path class="st4" d="M153.7,289.7v2.6H147v2.4h6v2.6l-6,0v2.4h6.8v2.6h-10.1v-12.6H153.7z"/>
		<path class="st4" d="M157.9,292.6l2,6.8l2.1-6.8h3.2l-3.7,9.7h-3.3l-3.6-9.7H157.9z"/>
		<path class="st4" d="M175.1,298.3h-6.8c0.3,1.1,1.1,1.7,2.2,1.7c0.8,0,1.6-0.3,2.3-1l1.7,1.7c-1,1.1-2.4,1.7-4.2,1.7
			c-3.2,0-5.1-2-5.1-4.9c0-3,2-5,5.1-5C173.6,292.5,175.4,294.8,175.1,298.3z M172,296.6c0-1.1-0.7-1.9-1.8-1.9
			c-1,0-1.7,0.8-1.9,1.9H172z"/>
		<path class="st4" d="M186.7,296.2v6.1h-3.2v-5.2c0-1.1-0.6-1.8-1.7-1.8c-1.1,0-1.8,0.8-1.9,1.9v5.1h-3.2v-9.7h3.2v1.6
			c0.7-1.1,1.8-1.7,3.2-1.7C185.3,292.5,186.7,293.9,186.7,296.2z"/>
		<path class="st4" d="M195.3,301.9c-0.7,0.4-1.7,0.6-2.6,0.6c-1.9,0-3.3-1.1-3.3-3.1v-4.2H188v-2.1h1.4v-2.7h3.2v2.7h2.5v2.1h-2.5
			v3.7c0,0.7,0.3,1,0.9,1c0.3,0,0.7-0.1,1.2-0.3L195.3,301.9z"/>
	</g>
	<g class="st3">
		<path class="st4" d="M132,317.6c0,3.8-2.8,6.3-6.8,6.3h-5.3v-12.6h5.4C129.3,311.3,132,313.9,132,317.6z M128.6,317.7
			c0-2.2-1.4-3.7-3.4-3.7h-2.1v7.3h2.2C127.3,321.3,128.6,319.8,128.6,317.7z"/>
		<path class="st4" d="M140,314.1v2.9c-1.8-0.2-3,0.6-3.1,2v5h-3.2v-9.7h3.2v1.6C137.5,314.7,138.6,314.1,140,314.1z"/>
		<path class="st4" d="M144.5,314.2v9.7h-3.2v-9.7H144.5z M144.4,311.5c0,0.8-0.6,1.5-1.5,1.5c-0.8,0-1.5-0.6-1.5-1.5
			c0-0.9,0.6-1.5,1.5-1.5C143.8,310,144.4,310.6,144.4,311.5z"/>
		<path class="st4" d="M149,314.2l2,6.8l2.1-6.8h3.2l-3.7,9.7h-3.3l-3.6-9.7H149z"/>
		<path class="st4" d="M166.2,319.9h-6.8c0.3,1.1,1.1,1.7,2.2,1.7c0.8,0,1.6-0.3,2.3-1l1.7,1.7c-1,1.1-2.4,1.7-4.2,1.7
			c-3.2,0-5.1-2-5.1-4.9c0-3,2-5,5.1-5C164.7,314.1,166.4,316.4,166.2,319.9z M163.1,318.2c0-1.1-0.7-1.9-1.8-1.9
			c-1,0-1.7,0.8-1.9,1.9H163.1z"/>
		<path class="st4" d="M177.8,317.8v6.1h-3.2v-5.2c0-1.1-0.6-1.8-1.7-1.8c-1.1,0-1.8,0.8-1.9,1.9v5.1h-3.2v-9.7h3.2v1.6
			c0.7-1.1,1.8-1.7,3.2-1.7C176.4,314.1,177.8,315.5,177.8,317.8z"/>
	</g>
</g>
<g id="Fast">
	<polygon id="XMLID_54_" class="st1" points="448.9,340.5 366.7,388.1 284.4,340.6 284.3,245.6 366.6,198.1 448.9,245.5 	"/>
	<rect id="XMLID_74_" x="296.4" y="268.4" class="st2" width="142.9" height="71"/>
	<g class="st3">
		<path class="st4" d="M359.1,269.1l0,2.6h-6.1v2.8h5.7v2.6h-5.7v4.6h-3.3v-12.6H359.1z"/>
		<path class="st4" d="M369.2,275.4v6.3h-3.2v-1.1c-0.6,0.8-1.6,1.2-2.9,1.2c-2.1,0-3.3-1.3-3.3-3c0-1.9,1.3-2.9,3.7-3h2.5v-0.1
			c0-0.9-0.6-1.5-1.9-1.5c-0.8,0-1.9,0.3-2.9,0.8l-0.9-2.2c1.5-0.7,2.9-1.1,4.5-1.1C367.6,271.9,369.2,273.2,369.2,275.4z
			 M366.1,278.5v-0.8h-1.9c-0.9,0-1.4,0.3-1.4,1c0,0.7,0.5,1.1,1.3,1.1C365.1,279.7,365.9,279.2,366.1,278.5z"/>
		<path class="st4" d="M374.8,274.1c-0.5,0-0.9,0.2-0.9,0.6c0,1.3,5.1,0.7,5.1,4.1c0,2-1.7,3.1-4.1,3.1c-1.6,0-3.2-0.5-4.4-1.4
			l1-2.1c1.1,0.8,2.4,1.2,3.5,1.2c0.6,0,1-0.2,1-0.6c0-1.3-5-0.7-5-4c0-2,1.7-3.2,4-3.2c1.4,0,2.8,0.4,4.1,1.1l-1.1,2.1
			C376.7,274.5,375.6,274.1,374.8,274.1z"/>
		<path class="st4" d="M387,281.3c-0.7,0.4-1.7,0.6-2.6,0.6c-1.9,0-3.3-1.1-3.3-3.1v-4.2h-1.3v-2.1h1.3v-2.7h3.2v2.7h2.5v2.1h-2.5
			v3.7c0,0.7,0.3,1,0.9,1c0.3,0,0.7-0.1,1.2-0.3L387,281.3z"/>
	</g>
	<g class="st3">
		<path class="st4" d="M329.4,295.2c0,3-1.9,4.7-5.1,4.7h-2.3v3.5h-3.3v-12.6h5.5C327.6,290.7,329.4,292.4,329.4,295.2z
			 M326.3,295.3c0-1.2-0.8-1.9-2.1-1.9h-2.1v3.9h2.1C325.5,297.2,326.3,296.5,326.3,295.3z"/>
		<path class="st4" d="M337.4,293.5v2.9c-1.8-0.2-3,0.6-3.1,2v5h-3.2v-9.7h3.2v1.6C334.9,294.1,336,293.5,337.4,293.5z"/>
		<path class="st4" d="M348.6,298.5c0,3-2.1,5-5.3,5s-5.3-2-5.3-5c0-3,2.1-5,5.3-5S348.6,295.5,348.6,298.5z M341.2,298.5
			c0,1.5,0.8,2.4,2.1,2.4c1.3,0,2.1-1,2.1-2.4c0-1.4-0.8-2.4-2.1-2.4C342.1,296.1,341.2,297.1,341.2,298.5z"/>
		<path class="st4" d="M354.7,296.2c-1.2,0-1.9,1-1.9,2.4c0,1.4,0.8,2.4,1.9,2.4c0.8,0,1.5-0.3,1.9-1.1l2.4,1.4
			c-0.8,1.5-2.4,2.3-4.4,2.3c-3,0-5-2-5-4.9c0-3,2-5,5-5c2,0,3.5,0.8,4.4,2.3l-2.3,1.4C356.1,296.5,355.5,296.2,354.7,296.2z"/>
		<path class="st4" d="M369.3,299.3h-6.8c0.3,1.1,1.1,1.7,2.2,1.7c0.8,0,1.6-0.3,2.3-1l1.7,1.7c-1,1.1-2.4,1.7-4.2,1.7
			c-3.2,0-5.1-2-5.1-4.9c0-3,2-5,5.1-5C367.8,293.5,369.5,295.8,369.3,299.3z M366.2,297.6c0-1.1-0.7-1.9-1.8-1.9
			c-1,0-1.7,0.8-1.9,1.9H366.2z"/>
		<path class="st4" d="M374.4,295.7c-0.5,0-0.9,0.2-0.9,0.6c0,1.3,5.1,0.7,5.1,4.1c0,2-1.7,3.1-4.1,3.1c-1.6,0-3.2-0.5-4.4-1.4
			l1-2.1c1.1,0.8,2.4,1.2,3.5,1.2c0.6,0,1-0.2,1-0.6c0-1.3-5-0.7-5-4c0-2,1.7-3.2,4-3.2c1.4,0,2.8,0.4,4.1,1.1l-1.1,2.1
			C376.3,296.1,375.2,295.7,374.4,295.7z"/>
		<path class="st4" d="M383.7,295.7c-0.5,0-0.9,0.2-0.9,0.6c0,1.3,5.1,0.7,5.1,4.1c0,2-1.7,3.1-4.1,3.1c-1.6,0-3.2-0.5-4.4-1.4
			l1-2.1c1.1,0.8,2.4,1.2,3.5,1.2c0.6,0,1-0.2,1-0.6c0-1.3-5-0.7-5-4c0-2,1.7-3.2,4-3.2c1.4,0,2.8,0.4,4.1,1.1l-1.1,2.1
			C385.6,296.1,384.5,295.7,383.7,295.7z"/>
		<path class="st4" d="M392.8,293.6v9.7h-3.2v-9.7H392.8z M392.7,290.9c0,0.8-0.6,1.5-1.5,1.5c-0.8,0-1.5-0.6-1.5-1.5
			c0-0.9,0.6-1.5,1.5-1.5C392,289.4,392.7,290,392.7,290.9z"/>
		<path class="st4" d="M405.2,297.2v6.1H402v-5.2c0-1.1-0.6-1.8-1.7-1.8c-1.1,0-1.8,0.8-1.9,1.9v5.1h-3.2v-9.7h3.2v1.6
			c0.7-1.1,1.8-1.7,3.2-1.7C403.8,293.5,405.2,294.9,405.2,297.2z"/>
		<path class="st4" d="M416.7,293.6v8.9c0,2.8-2.1,4.5-5.3,4.5c-1.7,0-3.3-0.5-4.4-1.3l1.1-2.2c0.9,0.6,2,1,3,1
			c1.5,0,2.3-0.7,2.3-1.9v-1c-0.6,0.8-1.6,1.3-2.8,1.3c-2.4,0-4.2-1.9-4.2-4.7c0-2.8,1.7-4.6,4.1-4.6c1.2,0,2.2,0.5,2.8,1.3v-1.2
			H416.7z M413.5,298.2c0-1.4-0.8-2.3-2-2.3c-1.2,0-2,0.9-2,2.3c0,1.3,0.8,2.3,2,2.3C412.7,300.5,413.5,299.5,413.5,298.2z"/>
	</g>
	<g class="st3">
		<path class="st4" d="M355.7,312.3v2.7H352v9.9h-3.3v-9.9h-3.7v-2.7H355.7z"/>
		<path class="st4" d="M360.3,315.2v9.7h-3.2v-9.7H360.3z M360.1,312.5c0,0.8-0.6,1.5-1.5,1.5c-0.8,0-1.5-0.6-1.5-1.5
			c0-0.9,0.6-1.5,1.5-1.5C359.5,311,360.1,311.6,360.1,312.5z"/>
		<path class="st4" d="M379.2,318.8v6.1H376v-5.2c0-1.1-0.6-1.8-1.6-1.8c-1.1,0-1.8,0.9-1.8,2.2v4.8h-3.2v-5.2
			c0-1.1-0.6-1.8-1.6-1.8c-1.1,0-1.9,0.9-1.9,2.2v4.8h-3.2v-9.7h3.2v1.6c0.7-1.1,1.8-1.7,3.2-1.7c1.6,0,2.8,0.8,3.2,2.2
			c0.6-1.4,1.8-2.2,3.4-2.2C377.8,315.1,379.2,316.5,379.2,318.8z"/>
		<path class="st4" d="M390.6,320.9h-6.8c0.3,1.1,1.1,1.7,2.2,1.7c0.8,0,1.6-0.3,2.3-1l1.7,1.7c-1,1.1-2.4,1.7-4.2,1.7
			c-3.2,0-5.1-2-5.1-4.9c0-3,2-5,5.1-5C389.1,315.1,390.8,317.4,390.6,320.9z M387.5,319.2c0-1.1-0.7-1.9-1.8-1.9
			c-1,0-1.7,0.8-1.9,1.9H387.5z"/>
	</g>
</g>
<g id="Scalable">
	<polygon id="XMLID_70_" class="st1" points="45.6,340.9 -36.6,388.5 -118.9,341 -118.9,246 -36.7,198.5 45.6,245.9 	"/>
	<rect id="XMLID_21_" x="-107.6" y="278.8" class="st2" width="142.9" height="71"/>
	<g class="st3">
		<path class="st4" d="M-61.6,279.5v5.1h5.1v-5.1h3.3v12.6h-3.3v-4.8h-5.1v4.8h-3.3v-12.6H-61.6z"/>
		<path class="st4" d="M-47.6,282.4v9.7h-3.2v-9.7H-47.6z M-47.7,279.7c0,0.8-0.6,1.5-1.5,1.5s-1.5-0.6-1.5-1.5
			c0-0.9,0.6-1.5,1.5-1.5S-47.7,278.8-47.7,279.7z"/>
		<path class="st4" d="M-35.8,282.4v8.9c0,2.8-2.1,4.5-5.3,4.5c-1.7,0-3.3-0.5-4.4-1.3l1.1-2.2c0.9,0.6,2,1,3,1
			c1.5,0,2.3-0.7,2.3-1.9v-1c-0.6,0.8-1.6,1.3-2.8,1.3c-2.4,0-4.2-1.9-4.2-4.7c0-2.8,1.7-4.6,4.1-4.6c1.2,0,2.2,0.5,2.8,1.3v-1.2
			H-35.8z M-39,287c0-1.4-0.8-2.3-2-2.3c-1.2,0-2,0.9-2,2.3c0,1.3,0.8,2.3,2,2.3C-39.8,289.3-39,288.3-39,287z"/>
		<path class="st4" d="M-23.4,286v6.1h-3.2v-5.2c0-1.1-0.6-1.8-1.7-1.8c-1.2,0-1.9,0.9-1.9,2.2v4.8h-3.2v-13.4h3.2v5.2
			c0.7-1.1,1.8-1.7,3.2-1.7C-24.8,282.3-23.4,283.7-23.4,286z"/>
		<path class="st4" d="M-18,278.8v13.4h-3.2v-13.4H-18z"/>
		<path class="st4" d="M-14,295.8c-1.1,0-2-0.3-2.9-1l1.3-2.2c0.5,0.4,0.8,0.5,1.3,0.5c0.5,0,0.9-0.3,1.2-0.7l0.2-0.5l-4-9.5h3.3
			l2.3,6.3l2.1-6.3H-6l-4.2,10.7C-10.9,294.9-12.2,295.8-14,295.8z"/>
	</g>
	<g class="st3">
		<path class="st4" d="M-69.4,303.7c-0.8,0-1.3,0.3-1.3,0.9c0,2.1,6.6,0.9,6.6,5.4c0,2.6-2.3,3.9-5.1,3.9c-2.1,0-4.3-0.8-5.8-2
			l1.3-2.6c1.3,1.1,3.3,1.9,4.6,1.9c1,0,1.6-0.4,1.6-1c0-2.1-6.6-0.8-6.6-5.3c0-2.4,2-3.9,5-3.9c1.9,0,3.7,0.6,5,1.4l-1.2,2.6
			C-66.7,304.3-68.4,303.7-69.4,303.7z"/>
		<path class="st4" d="M-58,306.6c-1.2,0-1.9,1-1.9,2.4c0,1.4,0.8,2.4,1.9,2.4c0.8,0,1.5-0.3,1.9-1.1l2.4,1.4
			c-0.8,1.5-2.4,2.3-4.4,2.3c-3,0-5-2-5-4.9c0-3,2-5,5-5c2,0,3.5,0.8,4.4,2.3l-2.3,1.4C-56.5,306.9-57.2,306.6-58,306.6z"/>
		<path class="st4" d="M-43.8,307.4v6.3h-3.2v-1.1c-0.6,0.8-1.6,1.2-2.9,1.2c-2.1,0-3.3-1.3-3.3-3c0-1.9,1.3-2.9,3.7-3h2.5v-0.1
			c0-0.9-0.6-1.5-1.9-1.5c-0.8,0-1.9,0.3-2.9,0.8l-0.9-2.2c1.5-0.7,2.9-1.1,4.5-1.1C-45.4,303.9-43.8,305.2-43.8,307.4z
			 M-46.9,310.5v-0.8h-1.9c-0.9,0-1.4,0.3-1.4,1c0,0.7,0.5,1.1,1.3,1.1C-47.9,311.7-47.1,311.2-46.9,310.5z"/>
		<path class="st4" d="M-38.3,300.4v13.4h-3.2v-13.4H-38.3z"/>
		<path class="st4" d="M-27.1,307.4v6.3h-3.2v-1.1c-0.6,0.8-1.6,1.2-2.9,1.2c-2.1,0-3.3-1.3-3.3-3c0-1.9,1.3-2.9,3.7-3h2.5v-0.1
			c0-0.9-0.6-1.5-1.9-1.5c-0.8,0-1.9,0.3-2.9,0.8l-0.9-2.2c1.5-0.7,2.9-1.1,4.5-1.1C-28.7,303.9-27.1,305.2-27.1,307.4z
			 M-30.3,310.5v-0.8h-1.9c-0.9,0-1.4,0.3-1.4,1c0,0.7,0.5,1.1,1.3,1.1C-31.3,311.7-30.5,311.2-30.3,310.5z"/>
		<path class="st4" d="M-14.3,308.9c0,3-1.8,4.9-4.5,4.9c-1.2,0-2.3-0.5-2.9-1.4v1.3h-3.2v-13.4h3.2v4.9c0.7-0.9,1.7-1.4,2.9-1.4
			C-16.1,303.9-14.3,305.9-14.3,308.9z M-17.5,308.9c0-1.4-0.8-2.4-2.1-2.4c-1.2,0-2.1,1-2.1,2.4s0.8,2.4,2.1,2.4
			C-18.3,311.3-17.5,310.3-17.5,308.9z"/>
		<path class="st4" d="M-9.3,300.4v13.4h-3.2v-13.4H-9.3z"/>
		<path class="st4" d="M2.4,309.7h-6.8c0.3,1.1,1.1,1.7,2.2,1.7c0.8,0,1.6-0.3,2.3-1l1.7,1.7c-1,1.1-2.4,1.7-4.2,1.7
			c-3.2,0-5.1-2-5.1-4.9c0-3,2-5,5.1-5C0.9,303.9,2.6,306.2,2.4,309.7z M-0.7,308c0-1.1-0.7-1.9-1.8-1.9c-1,0-1.7,0.8-1.9,1.9H-0.7z
			"/>
	</g>
</g>
<g id="Easy_Integration">
	<polygon id="XMLID_68_" class="st1" points="340,505.5 257.7,553.1 175.4,505.6 175.4,410.6 257.6,363.1 339.9,410.5 	"/>
	<rect id="XMLID_25_" x="186.4" y="423.4" class="st2" width="142.9" height="71"/>
	<g class="st3">
		<path class="st4" d="M246.5,448.8c0,3.7-2.9,6.5-6.8,6.5s-6.8-2.8-6.8-6.5c0-3.7,2.9-6.4,6.8-6.4S246.5,445.1,246.5,448.8z
			 M236.2,448.8c0,2.1,1.6,3.6,3.5,3.6c1.9,0,3.4-1.6,3.4-3.6s-1.5-3.6-3.4-3.6C237.8,445.2,236.2,446.7,236.2,448.8z"/>
		<path class="st4" d="M258.8,450.3c0,3-1.8,4.9-4.5,4.9c-1.2,0-2.3-0.5-2.9-1.4v4.8h-3.2v-13.2h3.2v1.3c0.7-0.9,1.7-1.4,2.9-1.4
			C257,445.3,258.8,447.3,258.8,450.3z M255.6,450.2c0-1.4-0.8-2.4-2.1-2.4c-1.2,0-2.1,1-2.1,2.4s0.8,2.4,2.1,2.4
			C254.7,452.6,255.6,451.6,255.6,450.2z"/>
		<path class="st4" d="M269.6,451.1h-6.8c0.3,1.1,1.1,1.7,2.2,1.7c0.8,0,1.6-0.3,2.3-1l1.7,1.7c-1,1.1-2.4,1.7-4.3,1.7
			c-3.2,0-5.1-2-5.1-4.9c0-3,2-5,5.1-5C268.1,445.3,269.9,447.5,269.6,451.1z M266.5,449.4c0-1.1-0.7-1.9-1.8-1.9
			c-1,0-1.7,0.8-1.9,1.9H266.5z"/>
		<path class="st4" d="M281.3,449v6.1h-3.2v-5.2c0-1.1-0.6-1.8-1.7-1.8c-1.1,0-1.8,0.8-1.9,1.9v5.1h-3.2v-9.7h3.2v1.6
			c0.7-1.1,1.8-1.7,3.2-1.7C279.9,445.2,281.3,446.7,281.3,449z"/>
	</g>
	<g class="st3">
		<path class="st4" d="M231.3,466.6c-0.8,0-1.3,0.3-1.3,0.9c0,2.1,6.6,0.9,6.6,5.4c0,2.6-2.3,3.9-5.1,3.9c-2.1,0-4.3-0.8-5.8-2
			l1.3-2.6c1.3,1.1,3.3,1.9,4.6,1.9c1,0,1.6-0.4,1.6-1c0-2.1-6.6-0.8-6.6-5.3c0-2.4,2-3.9,5-3.9c1.9,0,3.7,0.6,5,1.4l-1.2,2.6
			C234,467.2,232.3,466.6,231.3,466.6z"/>
		<path class="st4" d="M248.1,471.8c0,3-2.1,5-5.3,5s-5.3-2-5.3-5c0-3,2.1-5,5.3-5S248.1,468.8,248.1,471.8z M240.7,471.9
			c0,1.5,0.8,2.4,2.1,2.4c1.3,0,2.1-1,2.1-2.4c0-1.4-0.8-2.4-2.1-2.4C241.5,469.4,240.7,470.4,240.7,471.9z"/>
		<path class="st4" d="M259.2,467v9.7H256v-1.6c-0.7,1.1-1.7,1.7-3.1,1.7c-2.1,0-3.5-1.5-3.5-3.7V467h3.2v5.2c0,1.1,0.6,1.8,1.6,1.8
			c1.1,0,1.8-0.9,1.8-2.2V467H259.2z"/>
		<path class="st4" d="M268,466.8v2.9c-1.8-0.2-3,0.6-3.1,2v5h-3.2V467h3.2v1.6C265.6,467.5,266.7,466.8,268,466.8z"/>
		<path class="st4" d="M273.8,469.5c-1.2,0-1.9,1-1.9,2.4c0,1.4,0.8,2.4,1.9,2.4c0.8,0,1.5-0.3,1.9-1.1l2.4,1.4
			c-0.8,1.5-2.4,2.3-4.4,2.3c-3,0-5-2-5-4.9c0-3,2-5,5-5c2,0,3.5,0.8,4.4,2.3l-2.3,1.4C275.3,469.9,274.6,469.5,273.8,469.5z"/>
		<path class="st4" d="M288.5,472.7h-6.8c0.3,1.1,1.1,1.7,2.2,1.7c0.8,0,1.6-0.3,2.3-1l1.7,1.7c-1,1.1-2.4,1.7-4.2,1.7
			c-3.2,0-5.1-2-5.1-4.9c0-3,2-5,5.1-5C287,466.9,288.7,469.1,288.5,472.7z M285.4,471c0-1.1-0.7-1.9-1.8-1.9c-1,0-1.7,0.8-1.9,1.9
			H285.4z"/>
	</g>
</g>
<g id="Open_source">
	<polygon id="XMLID_69_" class="st1" points="633.2,340.9 550.9,388.5 468.6,341 468.5,246 550.8,198.5 633.2,245.9 	"/>
	<rect id="XMLID_29_" x="479.3" y="277.8" class="st2" width="142.9" height="71"/>
	<g class="st3">
		<path class="st4" d="M540.6,266.1v2.6H534v2.4h6v2.6l-6,0v2.4h6.8v2.6h-10.1v-12.6H540.6z"/>
		<path class="st4" d="M551.5,272.4v6.3h-3.2v-1.1c-0.6,0.8-1.6,1.2-2.9,1.2c-2.1,0-3.3-1.3-3.3-3c0-1.9,1.3-2.9,3.7-3h2.5v-0.1
			c0-0.9-0.6-1.5-1.9-1.5c-0.8,0-1.9,0.3-2.9,0.8l-0.9-2.2c1.5-0.7,2.9-1.1,4.5-1.1C549.9,268.9,551.5,270.2,551.5,272.4z
			 M548.3,275.5v-0.8h-1.9c-0.9,0-1.4,0.3-1.4,1c0,0.7,0.5,1.1,1.3,1.1C547.3,276.7,548.1,276.2,548.3,275.5z"/>
		<path class="st4" d="M557.1,271.1c-0.5,0-0.9,0.2-0.9,0.6c0,1.3,5.1,0.7,5.1,4.1c0,2-1.7,3.1-4.1,3.1c-1.6,0-3.2-0.5-4.4-1.4
			l1-2.1c1.1,0.8,2.4,1.2,3.5,1.2c0.6,0,1-0.2,1-0.6c0-1.3-5-0.7-5-4c0-2,1.7-3.2,4-3.2c1.4,0,2.8,0.4,4.1,1.1l-1.1,2.1
			C558.9,271.5,557.8,271.1,557.1,271.1z"/>
		<path class="st4" d="M564.3,282.4c-1.1,0-2-0.3-2.9-1l1.3-2.2c0.5,0.4,0.8,0.5,1.3,0.5c0.5,0,0.9-0.3,1.2-0.7l0.2-0.5l-4-9.5h3.3
			l2.3,6.3l2.1-6.3h3.2l-4.2,10.7C567.3,281.5,566.1,282.4,564.3,282.4z"/>
	</g>
	<g class="st3">
		<path class="st4" d="M503.4,287.7v12.6h-3.3v-12.6H503.4z"/>
		<path class="st4" d="M515.8,294.2v6.1h-3.2v-5.2c0-1.1-0.6-1.8-1.7-1.8c-1.1,0-1.8,0.8-1.9,1.9v5.1h-3.2v-9.7h3.2v1.6
			c0.7-1.1,1.8-1.7,3.2-1.7C514.4,290.5,515.8,291.9,515.8,294.2z"/>
		<path class="st4" d="M524.3,299.9c-0.7,0.4-1.7,0.6-2.6,0.6c-1.9,0-3.3-1.1-3.3-3.1v-4.2h-1.4v-2.1h1.4v-2.7h3.2v2.7h2.5v2.1h-2.5
			v3.7c0,0.7,0.3,1,0.9,1c0.3,0,0.7-0.1,1.2-0.3L524.3,299.9z"/>
		<path class="st4" d="M535,296.3h-6.8c0.3,1.1,1.1,1.7,2.2,1.7c0.8,0,1.6-0.3,2.3-1l1.7,1.7c-1,1.1-2.4,1.7-4.3,1.7
			c-3.2,0-5.1-2-5.1-4.9c0-3,2-5,5.1-5C533.5,290.5,535.2,292.8,535,296.3z M531.9,294.6c0-1.1-0.7-1.9-1.8-1.9
			c-1,0-1.7,0.8-1.9,1.9H531.9z"/>
		<path class="st4" d="M545.9,290.6v8.9c0,2.8-2.1,4.5-5.3,4.5c-1.7,0-3.3-0.5-4.4-1.3l1.1-2.2c0.9,0.6,2,1,3,1
			c1.5,0,2.3-0.7,2.3-1.9v-1c-0.6,0.8-1.6,1.3-2.8,1.3c-2.4,0-4.2-1.9-4.2-4.7c0-2.8,1.7-4.6,4.1-4.6c1.2,0,2.2,0.5,2.8,1.3v-1.2
			H545.9z M542.8,295.2c0-1.4-0.8-2.3-2-2.3c-1.2,0-2,0.9-2,2.3c0,1.3,0.8,2.3,2,2.3C542,297.5,542.8,296.5,542.8,295.2z"/>
		<path class="st4" d="M554.6,290.5v2.9c-1.8-0.2-3,0.6-3.1,2v5h-3.2v-9.7h3.2v1.6C552.2,291.1,553.3,290.5,554.6,290.5z"/>
		<path class="st4" d="M564.4,294v6.3h-3.2v-1.1c-0.6,0.8-1.6,1.2-2.9,1.2c-2.1,0-3.3-1.3-3.3-3c0-1.9,1.3-2.9,3.7-3h2.5v-0.1
			c0-0.9-0.6-1.5-1.9-1.5c-0.8,0-1.9,0.3-2.9,0.8l-0.9-2.2c1.5-0.7,2.9-1.1,4.5-1.1C562.8,290.5,564.4,291.8,564.4,294z
			 M561.3,297.1v-0.8h-1.9c-0.9,0-1.4,0.3-1.4,1c0,0.7,0.5,1.1,1.3,1.1C560.3,298.3,561.1,297.8,561.3,297.1z"/>
		<path class="st4" d="M572.9,299.9c-0.7,0.4-1.7,0.6-2.6,0.6c-1.9,0-3.3-1.1-3.3-3.1v-4.2h-1.3v-2.1h1.3v-2.7h3.2v2.7h2.5v2.1h-2.5
			v3.7c0,0.7,0.3,1,0.9,1c0.3,0,0.7-0.1,1.2-0.3L572.9,299.9z"/>
		<path class="st4" d="M577.6,290.6v9.7h-3.2v-9.7H577.6z M577.5,287.9c0,0.8-0.6,1.5-1.5,1.5s-1.5-0.6-1.5-1.5
			c0-0.9,0.6-1.5,1.5-1.5S577.5,287,577.5,287.9z"/>
		<path class="st4" d="M589.9,295.5c0,3-2.1,5-5.3,5s-5.3-2-5.3-5c0-3,2.1-5,5.3-5S589.9,292.5,589.9,295.5z M582.5,295.5
			c0,1.5,0.8,2.4,2.1,2.4c1.3,0,2.1-1,2.1-2.4c0-1.4-0.8-2.4-2.1-2.4C583.3,293.1,582.5,294.1,582.5,295.5z"/>
		<path class="st4" d="M601.5,294.2v6.1h-3.2v-5.2c0-1.1-0.6-1.8-1.7-1.8c-1.1,0-1.8,0.8-1.9,1.9v5.1h-3.2v-9.7h3.2v1.6
			c0.7-1.1,1.8-1.7,3.2-1.7C600.1,290.5,601.5,291.9,601.5,294.2z"/>
	</g>
	<g class="st3">
		<path class="st4" d="M486,312.2l1.9,6.6l1.9-6.6h3.1l1.9,6.6l1.9-6.6h3.1l-3.6,9.7h-3.2l-1.9-6l-1.9,6h-3.2l-3.5-9.7H486z"/>
		<path class="st4" d="M504.2,312.2v9.7H501v-9.7H504.2z M504.1,309.5c0,0.8-0.6,1.5-1.5,1.5s-1.5-0.6-1.5-1.5
			c0-0.9,0.6-1.5,1.5-1.5S504.1,308.6,504.1,309.5z"/>
		<path class="st4" d="M513,321.5c-0.7,0.4-1.7,0.6-2.6,0.6c-1.9,0-3.3-1.1-3.3-3.1v-4.2h-1.4v-2.1h1.4V310h3.2v2.7h2.5v2.1h-2.5
			v3.7c0,0.7,0.3,1,0.9,1c0.3,0,0.7-0.1,1.2-0.3L513,321.5z"/>
		<path class="st4" d="M524.6,315.8v6.1h-3.2v-5.2c0-1.1-0.6-1.8-1.7-1.8c-1.2,0-1.9,0.9-1.9,2.2v4.8h-3.2v-13.4h3.2v5.2
			c0.7-1.1,1.8-1.7,3.2-1.7C523.2,312.1,524.6,313.5,524.6,315.8z"/>
		<path class="st4" d="M535.2,322.1c-1.8,0-3.3-0.7-4.4-2l1.5-2.3c0.9,1,1.9,1.4,2.6,1.4c0.8,0,1.3-0.5,1.3-1.5v-5.7H532v-2.7h7.6
			v8.5C539.6,320.6,537.9,322.1,535.2,322.1z"/>
		<path class="st4" d="M546.5,311.9c-0.8,0-1.3,0.3-1.3,0.9c0,2.1,6.6,0.9,6.6,5.4c0,2.6-2.3,3.9-5.1,3.9c-2.1,0-4.3-0.8-5.8-2
			l1.3-2.6c1.3,1.1,3.3,1.9,4.6,1.9c1,0,1.6-0.4,1.6-1c0-2.1-6.6-0.8-6.6-5.3c0-2.4,2-3.9,5-3.9c1.9,0,3.7,0.6,5,1.4l-1.2,2.6
			C549.2,312.5,547.5,311.9,546.5,311.9z"/>
		<path class="st4" d="M563.5,311.9c-0.8,0-1.3,0.3-1.3,0.9c0,2.1,6.6,0.9,6.6,5.4c0,2.6-2.3,3.9-5.1,3.9c-2.1,0-4.3-0.8-5.8-2
			l1.3-2.6c1.3,1.1,3.3,1.9,4.6,1.9c1,0,1.6-0.4,1.6-1c0-2.1-6.6-0.8-6.6-5.3c0-2.4,2-3.9,5-3.9c1.9,0,3.7,0.6,5,1.4l-1.2,2.6
			C566.2,312.5,564.5,311.9,563.5,311.9z"/>
		<path class="st4" d="M576.8,321.5c-0.7,0.4-1.7,0.6-2.6,0.6c-1.9,0-3.3-1.1-3.3-3.1v-4.2h-1.4v-2.1h1.4V310h3.2v2.7h2.5v2.1h-2.5
			v3.7c0,0.7,0.3,1,0.9,1c0.3,0,0.7-0.1,1.2-0.3L576.8,321.5z"/>
		<path class="st4" d="M587,315.6v6.3h-3.2v-1.1c-0.6,0.8-1.6,1.2-2.9,1.2c-2.1,0-3.3-1.3-3.3-3c0-1.9,1.3-2.9,3.7-3h2.5V316
			c0-0.9-0.6-1.5-1.9-1.5c-0.8,0-1.9,0.3-2.9,0.8l-0.9-2.2c1.5-0.7,2.9-1.1,4.5-1.1C585.4,312.1,587,313.4,587,315.6z M583.9,318.7
			v-0.8H582c-0.9,0-1.4,0.3-1.4,1c0,0.7,0.5,1.1,1.3,1.1C582.9,319.9,583.7,319.4,583.9,318.7z"/>
		<path class="st4" d="M593.6,314.8c-1.2,0-1.9,1-1.9,2.4c0,1.4,0.8,2.4,1.9,2.4c0.8,0,1.5-0.3,1.9-1.1l2.4,1.4
			c-0.8,1.5-2.4,2.3-4.4,2.3c-3,0-5-2-5-4.9c0-3,2-5,5-5c2,0,3.5,0.8,4.4,2.3l-2.3,1.4C595,315.1,594.4,314.8,593.6,314.8z"/>
		<path class="st4" d="M603.6,318.3l-1,1v2.6h-3.2v-13.4h3.2v6.9l3.1-3.3h3.6l-3.6,3.8l3.6,6h-3.8L603.6,318.3z"/>
		<path class="st4" d="M613.8,314.3c-0.5,0-0.9,0.2-0.9,0.6c0,1.3,5.1,0.7,5.1,4.1c0,2-1.7,3.1-4.1,3.1c-1.6,0-3.2-0.5-4.4-1.4
			l1-2.1c1.1,0.8,2.4,1.2,3.5,1.2c0.6,0,1-0.2,1-0.6c0-1.3-5-0.7-5-4c0-2,1.7-3.2,4-3.2c1.4,0,2.8,0.4,4.1,1.1l-1.1,2.1
			C615.7,314.7,614.6,314.3,613.8,314.3z"/>
	</g>
</g>
<g id="node_1_">
	<line id="XMLID_31_" class="st5" x1="257.9" y1="283.1" x2="257.6" y2="372.4"/>
	<line id="XMLID_33_" class="st5" x1="31.3" y1="291.2" x2="76.3" y2="291.2"/>
	<line id="XMLID_30_" class="st5" x1="436.7" y1="293.4" x2="481.7" y2="293.4"/>
</g>
<g id="XMLID_1_">
	<path id="XMLID_2_" class="st6" d="M257.5,206.3c-0.5,0-1-0.1-1.4-0.4l-4.5-2.6c-0.6-0.4-0.3-0.5-0.1-0.6c0.9-0.3,1.1-0.4,2-0.9
		c0.1,0,0.2,0,0.3,0l3.4,2c0.1,0.1,0.3,0.1,0.4,0l13.4-7.7c0.1-0.1,0.2-0.2,0.2-0.4v-15.4c0-0.2-0.1-0.3-0.2-0.4l-13.3-7.7
		c-0.1-0.1-0.3-0.1-0.4,0L244,180c-0.1,0.1-0.2,0.2-0.2,0.4v15.4c0,0.2,0.1,0.3,0.2,0.4l3.6,2.1c2,1,3.2-0.2,3.2-1.3v-15.3
		c0-0.2,0.2-0.4,0.4-0.4h1.7c0.2,0,0.4,0.2,0.4,0.4v15.2c0,2.6-1.5,4.2-4,4.2c-0.8,0-1.4,0-3.1-0.9l-3.5-2c-0.9-0.5-1.4-1.4-1.4-2.4
		v-15.4c0-1,0.5-1.9,1.4-2.4l13.4-7.7c0.9-0.5,2-0.5,2.8,0l13.4,7.7c0.9,0.5,1.4,1.4,1.4,2.4v15.4c0,1-0.5,1.9-1.4,2.4l-13.4,7.7
		C258.5,206.1,258,206.3,257.5,206.3"/>
	<path id="XMLID_3_" class="st6" d="M261.7,195.7c-5.8,0-7.1-2.7-7.1-4.9c0-0.2,0.2-0.4,0.4-0.4h1.7c0.2,0,0.4,0.1,0.4,0.3
		c0.2,1.7,1.1,2.6,4.6,2.6c2.8,0,4-0.6,4-2.1c0-0.9-0.3-1.5-4.7-1.9c-3.6-0.4-5.9-1.2-5.9-4.1c0-2.7,2.3-4.3,6.1-4.3
		c4.3,0,6.4,1.5,6.6,4.7c0,0.1,0,0.2-0.1,0.3c-0.1,0.1-0.2,0.1-0.3,0.1h-1.7c-0.2,0-0.3-0.1-0.4-0.3c-0.4-1.9-1.4-2.4-4.2-2.4
		c-3.1,0-3.4,1.1-3.4,1.9c0,1,0.4,1.3,4.6,1.8c4.1,0.5,6,1.3,6,4.2C268.3,194,265.9,195.7,261.7,195.7 M277.9,179.4h0.4
		c0.4,0,0.4-0.2,0.4-0.4c0-0.4-0.3-0.4-0.4-0.4h-0.4L277.9,179.4z M277.3,178.1h1c0.3,0,1,0,1,0.8c0,0.5-0.3,0.6-0.5,0.7
		c0.4,0,0.4,0.3,0.5,0.6c0,0.2,0.1,0.6,0.2,0.8h-0.6c0-0.1-0.1-0.9-0.1-0.9c0-0.2-0.1-0.2-0.3-0.2H278v1.2h-0.6L277.3,178.1
		L277.3,178.1z M276.2,179.5c0,1.2,1,2.1,2.1,2.1c1.2,0,2.1-1,2.1-2.1c0-1.2-1-2.1-2.1-2.1C277.1,177.4,276.2,178.3,276.2,179.5
		 M280.9,179.5c0,1.4-1.2,2.6-2.6,2.6s-2.6-1.1-2.6-2.6s1.2-2.6,2.6-2.6C279.7,177,280.9,178.1,280.9,179.5"/>
	<path id="XMLID_9_" class="st7" d="M216.2,146c0-0.6-0.3-1.2-0.9-1.5l-14.1-8.1c-0.2-0.1-0.5-0.2-0.8-0.2h-0.2
		c-0.3,0-0.5,0.1-0.8,0.2l-14.1,8.1c-0.5,0.3-0.9,0.9-0.9,1.5l0,22c0,0.3,0.2,0.6,0.4,0.7c0.2,0.2,0.6,0.2,0.9,0l8.4-4.8
		c0.5-0.3,0.9-0.9,0.9-1.5v-10.3c0-0.6,0.3-1.2,0.9-1.5l3.6-2.1c0.3-0.2,0.6-0.2,0.9-0.2s0.6,0.1,0.9,0.2l3.6,2.1
		c0.5,0.3,0.9,0.9,0.9,1.5v10.3c0,0.6,0.3,1.2,0.9,1.5l8.4,4.8c0.3,0.2,0.6,0.2,0.9,0c0.2-0.2,0.4-0.4,0.4-0.7L216.2,146z
		 M283,157.4c0,0.2-0.1,0.3-0.2,0.4l-4.9,2.8c-0.1,0.1-0.3,0.1-0.4,0l-4.9-2.8c-0.1-0.1-0.2-0.2-0.2-0.4v-5.6c0-0.2,0.1-0.3,0.2-0.4
		l4.9-2.8c0.1-0.1,0.3-0.1,0.4,0l4.9,2.8c0.1,0.1,0.2,0.2,0.2,0.4V157.4z M284.3,115.8c-0.3-0.2-0.6-0.2-0.9,0
		c-0.2,0.2-0.4,0.4-0.4,0.7v21.8c0,0.2-0.1,0.4-0.3,0.5c-0.2,0.1-0.4,0.1-0.6,0l-3.6-2c-0.5-0.3-1.2-0.3-1.7,0l-14.2,8.2
		c-0.5,0.3-0.9,0.9-0.9,1.5v16.4c0,0.6,0.3,1.2,0.9,1.5l14.2,8.2c0.5,0.3,1.2,0.3,1.7,0l14.2-8.2c0.5-0.3,0.9-0.9,0.9-1.5V122
		c0-0.6-0.3-1.2-0.9-1.5L284.3,115.8z M331.5,151.6c0.5-0.3,0.9-0.9,0.9-1.5v-4c0-0.6-0.3-1.2-0.9-1.5l-14.1-8.2
		c-0.5-0.3-1.2-0.3-1.7,0l-14.2,8.2c-0.5,0.3-0.9,0.9-0.9,1.5v16.3c0,0.6,0.3,1.2,0.9,1.5l14.1,8c0.5,0.3,1.1,0.3,1.7,0l8.5-4.7
		c0.3-0.2,0.4-0.4,0.4-0.7c0-0.3-0.2-0.6-0.4-0.7l-14.3-8.2c-0.3-0.2-0.4-0.4-0.4-0.7v-5.1c0-0.3,0.2-0.6,0.4-0.7l4.4-2.6
		c0.3-0.2,0.6-0.2,0.9,0l4.4,2.6c0.3,0.2,0.4,0.4,0.4,0.7v4.1c0,0.3,0.2,0.6,0.4,0.7c0.3,0.2,0.6,0.2,0.9,0L331.5,151.6z"/>
	<path id="XMLID_14_" class="st6" d="M316.3,150.9c0.1,0,0.2,0,0.3,0l2.7,1.6c0.1,0,0.2,0.2,0.2,0.3v3.1c0,0.1-0.1,0.2-0.2,0.3
		l-2.7,1.6c-0.1,0-0.2,0-0.3,0l-2.7-1.6c-0.1,0-0.2-0.2-0.2-0.3v-3.1c0-0.1,0-0.2,0.2-0.3L316.3,150.9z"/>
	<g id="XMLID_15_">
		<g>
			<defs>
				<path id="SVGID_1_" d="M238.2,136.6l-14.1,8.1c-0.5,0.3-0.9,0.9-0.9,1.5v16.3c0,0.6,0.3,1.2,0.9,1.5l14.1,8.1
					c0.5,0.3,1.2,0.3,1.7,0L254,164c0.5-0.3,0.9-0.9,0.9-1.5v-16.3c0-0.6-0.3-1.2-0.9-1.5l-14.1-8.1c-0.3-0.2-0.6-0.2-0.9-0.2
					C238.7,136.4,238.4,136.5,238.2,136.6"/>
			</defs>
			<clipPath id="SVGID_2_">
				<use xlink:href="#SVGID_1_"  style="overflow:visible;"/>
			</clipPath>
			
				<linearGradient id="SVGID_3_" gradientUnits="userSpaceOnUse" x1="107.6097" y1="450.1505" x2="107.8605" y2="450.1505" gradientTransform="matrix(-81.162 165.5699 165.5699 81.162 -65548.3672 -54218.3867)">
				<stop  offset="0" style="stop-color:#3E863D"/>
				<stop  offset="0.3" style="stop-color:#3E863D"/>
				<stop  offset="0.5" style="stop-color:#55934F"/>
				<stop  offset="0.8" style="stop-color:#5AAD45"/>
				<stop  offset="1" style="stop-color:#5AAD45"/>
			</linearGradient>
			<polygon class="st8" points="269,143.4 229.3,123.9 209,165.5 248.7,184.9 			"/>
		</g>
	</g>
	<g id="XMLID_17_">
		<g>
			<defs>
				<path id="SVGID_4_" d="M223.6,163.6c0.1,0.2,0.3,0.3,0.5,0.4l12.1,7l2,1.2c0.3,0.2,0.6,0.2,1,0.2c0.1,0,0.2,0,0.3-0.1l14.9-27.2
					c-0.1-0.1-0.2-0.2-0.4-0.3l-9.2-5.3l-4.9-2.8c-0.1-0.1-0.3-0.1-0.4-0.2L223.6,163.6z"/>
			</defs>
			<clipPath id="SVGID_5_">
				<use xlink:href="#SVGID_4_"  style="overflow:visible;"/>
			</clipPath>
			
				<linearGradient id="SVGID_6_" gradientUnits="userSpaceOnUse" x1="108.6678" y1="452.1049" x2="108.9186" y2="452.1049" gradientTransform="matrix(147.809 -109.2133 -109.2133 -147.809 33534.207 78861.2578)">
				<stop  offset="0" style="stop-color:#3E863D"/>
				<stop  offset="0.57" style="stop-color:#3E863D"/>
				<stop  offset="0.72" style="stop-color:#619857"/>
				<stop  offset="1" style="stop-color:#76AC64"/>
			</linearGradient>
			<polygon class="st9" points="206.4,149.1 234.4,187.1 271.5,159.7 243.5,121.7 			"/>
		</g>
	</g>
	<g id="XMLID_19_">
		<g>
			<defs>
				<path id="SVGID_7_" d="M238.8,136.4c-0.2,0-0.5,0.1-0.7,0.2l-14.1,8.1l15.2,27.6c0.2,0,0.4-0.1,0.6-0.2L254,164
					c0.4-0.2,0.7-0.7,0.8-1.2l-15.4-26.3c-0.1,0-0.2,0-0.3,0C238.9,136.4,238.9,136.4,238.8,136.4"/>
			</defs>
			<clipPath id="SVGID_8_">
				<use xlink:href="#SVGID_7_"  style="overflow:visible;"/>
			</clipPath>
			
				<linearGradient id="SVGID_9_" gradientUnits="userSpaceOnUse" x1="107.7267" y1="452.6002" x2="107.9772" y2="452.6002" gradientTransform="matrix(122.2438 0 0 -122.2438 -12944.7842 55481.9141)">
				<stop  offset="0" style="stop-color:#6BBF47"/>
				<stop  offset="0.16" style="stop-color:#6BBF47"/>
				<stop  offset="0.38" style="stop-color:#79B461"/>
				<stop  offset="0.47" style="stop-color:#75AC64"/>
				<stop  offset="0.7" style="stop-color:#659E5A"/>
				<stop  offset="0.9" style="stop-color:#3E863D"/>
				<stop  offset="1" style="stop-color:#3E863D"/>
			</linearGradient>
			<rect x="224.1" y="136.4" class="st10" width="30.6" height="35.9"/>
		</g>
	</g>
</g>
</svg>
